<mxfile host="app.diagrams.net" modified="2024-04-28T23:32:57.537Z" agent="Mozilla/5.0 (Windows NT 10.0; Win64; x64) AppleWebKit/537.36 (KHTML, like Gecko) Chrome/124.0.0.0 Safari/537.36" etag="SMYVCYYWSWhWfdHExlfO" version="24.3.1" type="device">
  <diagram name="Page-1" id="q4d12M22QJPgkoLAOmS3">
    <mxGraphModel dx="1909" dy="949" grid="1" gridSize="10" guides="1" tooltips="1" connect="1" arrows="1" fold="1" page="1" pageScale="1" pageWidth="827" pageHeight="1169" math="0" shadow="0">
      <root>
        <mxCell id="0" />
        <mxCell id="1" parent="0" />
        <mxCell id="ZcmWodfsIwHCJi8UoJo0-1" value="" style="rounded=0;whiteSpace=wrap;html=1;rotation=90;" parent="1" vertex="1">
          <mxGeometry x="-425" y="525" width="1070" height="200" as="geometry" />
        </mxCell>
        <mxCell id="ZcmWodfsIwHCJi8UoJo0-2" value="" style="rounded=0;whiteSpace=wrap;html=1;rotation=90;" parent="1" vertex="1">
          <mxGeometry x="-225" y="525" width="1070" height="200" as="geometry" />
        </mxCell>
        <mxCell id="ZcmWodfsIwHCJi8UoJo0-3" value="" style="rounded=0;whiteSpace=wrap;html=1;rotation=90;" parent="1" vertex="1">
          <mxGeometry x="-25" y="525" width="1070" height="200" as="geometry" />
        </mxCell>
        <mxCell id="ZcmWodfsIwHCJi8UoJo0-4" value="" style="rounded=0;whiteSpace=wrap;html=1;rotation=90;" parent="1" vertex="1">
          <mxGeometry x="175" y="525" width="1070" height="200" as="geometry" />
        </mxCell>
        <mxCell id="ZcmWodfsIwHCJi8UoJo0-6" value="Humain&amp;nbsp;" style="text;html=1;align=center;verticalAlign=middle;whiteSpace=wrap;rounded=0;fontSize=20;" parent="1" vertex="1">
          <mxGeometry x="50" y="20" width="135" height="50" as="geometry" />
        </mxCell>
        <mxCell id="ZcmWodfsIwHCJi8UoJo0-7" value="Main" style="text;html=1;align=center;verticalAlign=middle;whiteSpace=wrap;rounded=0;fontSize=20;" parent="1" vertex="1">
          <mxGeometry x="243.5" y="20" width="135" height="50" as="geometry" />
        </mxCell>
        <mxCell id="ZcmWodfsIwHCJi8UoJo0-8" value="Worker" style="text;html=1;align=center;verticalAlign=middle;whiteSpace=wrap;rounded=0;fontSize=20;" parent="1" vertex="1">
          <mxGeometry x="450" y="20" width="135" height="50" as="geometry" />
        </mxCell>
        <mxCell id="ZcmWodfsIwHCJi8UoJo0-9" value="Mongodb" style="text;html=1;align=center;verticalAlign=middle;whiteSpace=wrap;rounded=0;fontSize=20;" parent="1" vertex="1">
          <mxGeometry x="650" y="20" width="135" height="50" as="geometry" />
        </mxCell>
        <mxCell id="ZcmWodfsIwHCJi8UoJo0-11" value="" style="endArrow=none;html=1;rounded=0;exitX=0;exitY=1;exitDx=0;exitDy=0;" parent="1" source="ZcmWodfsIwHCJi8UoJo0-2" edge="1">
          <mxGeometry width="50" height="50" relative="1" as="geometry">
            <mxPoint x="380" y="300" as="sourcePoint" />
            <mxPoint x="210" as="targetPoint" />
          </mxGeometry>
        </mxCell>
        <mxCell id="ZcmWodfsIwHCJi8UoJo0-12" value="" style="endArrow=none;html=1;rounded=0;exitX=0;exitY=1;exitDx=0;exitDy=0;" parent="1" edge="1">
          <mxGeometry width="50" height="50" relative="1" as="geometry">
            <mxPoint x="10" y="90" as="sourcePoint" />
            <mxPoint x="10" as="targetPoint" />
          </mxGeometry>
        </mxCell>
        <mxCell id="ZcmWodfsIwHCJi8UoJo0-13" value="" style="endArrow=none;html=1;rounded=0;exitX=0;exitY=1;exitDx=0;exitDy=0;" parent="1" edge="1">
          <mxGeometry width="50" height="50" relative="1" as="geometry">
            <mxPoint x="410" y="90" as="sourcePoint" />
            <mxPoint x="410" as="targetPoint" />
          </mxGeometry>
        </mxCell>
        <mxCell id="ZcmWodfsIwHCJi8UoJo0-14" value="" style="endArrow=none;html=1;rounded=0;exitX=0;exitY=1;exitDx=0;exitDy=0;" parent="1" edge="1">
          <mxGeometry width="50" height="50" relative="1" as="geometry">
            <mxPoint x="610" y="90" as="sourcePoint" />
            <mxPoint x="610" as="targetPoint" />
          </mxGeometry>
        </mxCell>
        <mxCell id="ZcmWodfsIwHCJi8UoJo0-15" value="" style="endArrow=none;html=1;rounded=0;exitX=0;exitY=1;exitDx=0;exitDy=0;" parent="1" edge="1">
          <mxGeometry width="50" height="50" relative="1" as="geometry">
            <mxPoint x="810" y="90" as="sourcePoint" />
            <mxPoint x="810" as="targetPoint" />
          </mxGeometry>
        </mxCell>
        <mxCell id="ZcmWodfsIwHCJi8UoJo0-16" value="" style="endArrow=none;html=1;rounded=0;" parent="1" edge="1">
          <mxGeometry width="50" height="50" relative="1" as="geometry">
            <mxPoint x="10" as="sourcePoint" />
            <mxPoint x="810" as="targetPoint" />
          </mxGeometry>
        </mxCell>
        <mxCell id="ZcmWodfsIwHCJi8UoJo0-17" value="" style="strokeWidth=2;html=1;shape=mxgraph.flowchart.start_2;whiteSpace=wrap;fillColor=#000000;" parent="1" vertex="1">
          <mxGeometry x="100" y="93" width="20" height="20" as="geometry" />
        </mxCell>
        <mxCell id="flCzr4l9I_kHlXfD0UTF-23" style="edgeStyle=orthogonalEdgeStyle;rounded=0;orthogonalLoop=1;jettySize=auto;html=1;entryX=0.5;entryY=0;entryDx=0;entryDy=0;" edge="1" parent="1" source="ZcmWodfsIwHCJi8UoJo0-18" target="flCzr4l9I_kHlXfD0UTF-20">
          <mxGeometry relative="1" as="geometry" />
        </mxCell>
        <mxCell id="ZcmWodfsIwHCJi8UoJo0-18" value="" style="ellipse;whiteSpace=wrap;html=1;" parent="1" vertex="1">
          <mxGeometry x="35" y="140" width="150" height="50" as="geometry" />
        </mxCell>
        <mxCell id="ZcmWodfsIwHCJi8UoJo0-19" value="" style="endArrow=classic;html=1;rounded=0;exitX=0.5;exitY=1;exitDx=0;exitDy=0;exitPerimeter=0;" parent="1" source="ZcmWodfsIwHCJi8UoJo0-17" target="ZcmWodfsIwHCJi8UoJo0-18" edge="1">
          <mxGeometry width="50" height="50" relative="1" as="geometry">
            <mxPoint x="380" y="300" as="sourcePoint" />
            <mxPoint x="430" y="250" as="targetPoint" />
          </mxGeometry>
        </mxCell>
        <mxCell id="ZcmWodfsIwHCJi8UoJo0-20" value="Démarage du processus" style="text;html=1;align=center;verticalAlign=middle;whiteSpace=wrap;rounded=0;" parent="1" vertex="1">
          <mxGeometry x="40" y="150" width="140" height="30" as="geometry" />
        </mxCell>
        <mxCell id="flCzr4l9I_kHlXfD0UTF-42" style="edgeStyle=orthogonalEdgeStyle;rounded=0;orthogonalLoop=1;jettySize=auto;html=1;entryX=0.5;entryY=0;entryDx=0;entryDy=0;" edge="1" parent="1" source="flCzr4l9I_kHlXfD0UTF-1" target="flCzr4l9I_kHlXfD0UTF-38">
          <mxGeometry relative="1" as="geometry" />
        </mxCell>
        <mxCell id="flCzr4l9I_kHlXfD0UTF-1" value="" style="ellipse;whiteSpace=wrap;html=1;" vertex="1" parent="1">
          <mxGeometry x="235.5" y="356" width="150" height="50" as="geometry" />
        </mxCell>
        <mxCell id="flCzr4l9I_kHlXfD0UTF-2" value="Charger les données" style="text;html=1;align=center;verticalAlign=middle;whiteSpace=wrap;rounded=0;" vertex="1" parent="1">
          <mxGeometry x="250.5" y="366" width="130" height="30" as="geometry" />
        </mxCell>
        <mxCell id="flCzr4l9I_kHlXfD0UTF-14" style="edgeStyle=orthogonalEdgeStyle;rounded=0;orthogonalLoop=1;jettySize=auto;html=1;entryX=1;entryY=0.5;entryDx=0;entryDy=0;exitX=0.5;exitY=1;exitDx=0;exitDy=0;" edge="1" parent="1">
          <mxGeometry relative="1" as="geometry">
            <mxPoint x="710.03" y="557.95" as="sourcePoint" />
            <mxPoint x="592.53" y="592.95" as="targetPoint" />
            <Array as="points">
              <mxPoint x="710.03" y="593.95" />
            </Array>
          </mxGeometry>
        </mxCell>
        <mxCell id="flCzr4l9I_kHlXfD0UTF-4" value="" style="ellipse;whiteSpace=wrap;html=1;" vertex="1" parent="1">
          <mxGeometry x="635" y="514" width="150" height="50" as="geometry" />
        </mxCell>
        <mxCell id="flCzr4l9I_kHlXfD0UTF-5" value="Stockage des données" style="text;html=1;align=center;verticalAlign=middle;whiteSpace=wrap;rounded=0;" vertex="1" parent="1">
          <mxGeometry x="650" y="524" width="130" height="30" as="geometry" />
        </mxCell>
        <mxCell id="flCzr4l9I_kHlXfD0UTF-15" style="edgeStyle=orthogonalEdgeStyle;rounded=0;orthogonalLoop=1;jettySize=auto;html=1;entryX=0.5;entryY=0;entryDx=0;entryDy=0;" edge="1" parent="1" source="flCzr4l9I_kHlXfD0UTF-6" target="flCzr4l9I_kHlXfD0UTF-10">
          <mxGeometry relative="1" as="geometry" />
        </mxCell>
        <mxCell id="flCzr4l9I_kHlXfD0UTF-6" value="" style="ellipse;whiteSpace=wrap;html=1;" vertex="1" parent="1">
          <mxGeometry x="442.5" y="574" width="150" height="50" as="geometry" />
        </mxCell>
        <mxCell id="flCzr4l9I_kHlXfD0UTF-7" value="Traitement des données" style="text;html=1;align=center;verticalAlign=middle;whiteSpace=wrap;rounded=0;" vertex="1" parent="1">
          <mxGeometry x="457.5" y="584" width="130" height="30" as="geometry" />
        </mxCell>
        <mxCell id="flCzr4l9I_kHlXfD0UTF-19" style="edgeStyle=orthogonalEdgeStyle;rounded=0;orthogonalLoop=1;jettySize=auto;html=1;entryX=1;entryY=0.5;entryDx=0;entryDy=0;" edge="1" parent="1" source="flCzr4l9I_kHlXfD0UTF-8" target="flCzr4l9I_kHlXfD0UTF-17">
          <mxGeometry relative="1" as="geometry">
            <Array as="points">
              <mxPoint x="718" y="1115" />
            </Array>
          </mxGeometry>
        </mxCell>
        <mxCell id="flCzr4l9I_kHlXfD0UTF-8" value="" style="ellipse;whiteSpace=wrap;html=1;" vertex="1" parent="1">
          <mxGeometry x="645" y="921" width="150" height="50" as="geometry" />
        </mxCell>
        <mxCell id="flCzr4l9I_kHlXfD0UTF-9" value="Stockage des données traitées" style="text;html=1;align=center;verticalAlign=middle;whiteSpace=wrap;rounded=0;" vertex="1" parent="1">
          <mxGeometry x="660" y="931" width="130" height="30" as="geometry" />
        </mxCell>
        <mxCell id="flCzr4l9I_kHlXfD0UTF-53" style="edgeStyle=orthogonalEdgeStyle;rounded=0;orthogonalLoop=1;jettySize=auto;html=1;entryX=0.5;entryY=0;entryDx=0;entryDy=0;" edge="1" parent="1" source="flCzr4l9I_kHlXfD0UTF-10" target="flCzr4l9I_kHlXfD0UTF-51">
          <mxGeometry relative="1" as="geometry" />
        </mxCell>
        <mxCell id="flCzr4l9I_kHlXfD0UTF-10" value="" style="ellipse;whiteSpace=wrap;html=1;" vertex="1" parent="1">
          <mxGeometry x="442.5" y="675" width="150" height="50" as="geometry" />
        </mxCell>
        <mxCell id="flCzr4l9I_kHlXfD0UTF-16" style="edgeStyle=orthogonalEdgeStyle;rounded=0;orthogonalLoop=1;jettySize=auto;html=1;entryX=0;entryY=0.5;entryDx=0;entryDy=0;exitX=0.041;exitY=0.875;exitDx=0;exitDy=0;exitPerimeter=0;" edge="1" parent="1" source="flCzr4l9I_kHlXfD0UTF-57" target="flCzr4l9I_kHlXfD0UTF-8">
          <mxGeometry relative="1" as="geometry" />
        </mxCell>
        <mxCell id="flCzr4l9I_kHlXfD0UTF-11" value="Indexer les données" style="text;html=1;align=center;verticalAlign=middle;whiteSpace=wrap;rounded=0;" vertex="1" parent="1">
          <mxGeometry x="457.5" y="685" width="130" height="30" as="geometry" />
        </mxCell>
        <mxCell id="flCzr4l9I_kHlXfD0UTF-17" value="" style="ellipse;whiteSpace=wrap;html=1;" vertex="1" parent="1">
          <mxGeometry x="35" y="1090" width="150" height="50" as="geometry" />
        </mxCell>
        <mxCell id="flCzr4l9I_kHlXfD0UTF-18" value="Fin du processus" style="text;html=1;align=center;verticalAlign=middle;whiteSpace=wrap;rounded=0;" vertex="1" parent="1">
          <mxGeometry x="40" y="1100" width="140" height="30" as="geometry" />
        </mxCell>
        <mxCell id="flCzr4l9I_kHlXfD0UTF-30" style="edgeStyle=orthogonalEdgeStyle;rounded=0;orthogonalLoop=1;jettySize=auto;html=1;" edge="1" parent="1" source="flCzr4l9I_kHlXfD0UTF-20" target="flCzr4l9I_kHlXfD0UTF-28">
          <mxGeometry relative="1" as="geometry" />
        </mxCell>
        <mxCell id="flCzr4l9I_kHlXfD0UTF-20" value="" style="ellipse;whiteSpace=wrap;html=1;" vertex="1" parent="1">
          <mxGeometry x="35" y="210" width="150" height="50" as="geometry" />
        </mxCell>
        <mxCell id="flCzr4l9I_kHlXfD0UTF-21" value="Sélection des données" style="text;html=1;align=center;verticalAlign=middle;whiteSpace=wrap;rounded=0;" vertex="1" parent="1">
          <mxGeometry x="40" y="220" width="140" height="30" as="geometry" />
        </mxCell>
        <mxCell id="flCzr4l9I_kHlXfD0UTF-25" style="edgeStyle=orthogonalEdgeStyle;rounded=0;orthogonalLoop=1;jettySize=auto;html=1;entryX=0.5;entryY=0;entryDx=0;entryDy=0;" edge="1" parent="1" target="flCzr4l9I_kHlXfD0UTF-1">
          <mxGeometry relative="1" as="geometry">
            <mxPoint x="310" y="322" as="sourcePoint" />
          </mxGeometry>
        </mxCell>
        <mxCell id="flCzr4l9I_kHlXfD0UTF-34" style="edgeStyle=orthogonalEdgeStyle;rounded=0;orthogonalLoop=1;jettySize=auto;html=1;entryX=0.5;entryY=1;entryDx=0;entryDy=0;exitX=0;exitY=0.5;exitDx=0;exitDy=0;" edge="1" parent="1" source="flCzr4l9I_kHlXfD0UTF-40" target="flCzr4l9I_kHlXfD0UTF-20">
          <mxGeometry relative="1" as="geometry">
            <mxPoint x="275" y="301" as="sourcePoint" />
            <Array as="points">
              <mxPoint x="275" y="304" />
              <mxPoint x="110" y="304" />
            </Array>
          </mxGeometry>
        </mxCell>
        <mxCell id="flCzr4l9I_kHlXfD0UTF-26" value="" style="strokeWidth=2;html=1;shape=mxgraph.flowchart.start_2;whiteSpace=wrap;fillColor=#000000;" vertex="1" parent="1">
          <mxGeometry x="378.5" y="322" width="20" height="20" as="geometry" />
        </mxCell>
        <mxCell id="flCzr4l9I_kHlXfD0UTF-27" style="edgeStyle=orthogonalEdgeStyle;rounded=0;orthogonalLoop=1;jettySize=auto;html=1;entryX=0.5;entryY=0;entryDx=0;entryDy=0;entryPerimeter=0;exitX=1;exitY=0.5;exitDx=0;exitDy=0;" edge="1" parent="1" source="flCzr4l9I_kHlXfD0UTF-40" target="flCzr4l9I_kHlXfD0UTF-26">
          <mxGeometry relative="1" as="geometry">
            <mxPoint x="345" y="301" as="sourcePoint" />
            <Array as="points">
              <mxPoint x="353" y="305" />
              <mxPoint x="389" y="305" />
            </Array>
          </mxGeometry>
        </mxCell>
        <mxCell id="flCzr4l9I_kHlXfD0UTF-28" value="" style="ellipse;whiteSpace=wrap;html=1;" vertex="1" parent="1">
          <mxGeometry x="235" y="210" width="150" height="50" as="geometry" />
        </mxCell>
        <mxCell id="flCzr4l9I_kHlXfD0UTF-29" value="Vérification du type du fichier" style="text;html=1;align=center;verticalAlign=middle;whiteSpace=wrap;rounded=0;" vertex="1" parent="1">
          <mxGeometry x="240" y="220" width="140" height="30" as="geometry" />
        </mxCell>
        <mxCell id="flCzr4l9I_kHlXfD0UTF-32" value="" style="endArrow=classic;html=1;rounded=0;exitX=0.5;exitY=1;exitDx=0;exitDy=0;entryX=0.5;entryY=0;entryDx=0;entryDy=0;" edge="1" parent="1" source="flCzr4l9I_kHlXfD0UTF-28" target="flCzr4l9I_kHlXfD0UTF-40">
          <mxGeometry width="50" height="50" relative="1" as="geometry">
            <mxPoint x="500" y="400" as="sourcePoint" />
            <mxPoint x="310.98" y="282.81399999999996" as="targetPoint" />
          </mxGeometry>
        </mxCell>
        <mxCell id="flCzr4l9I_kHlXfD0UTF-35" value="Modifier" style="text;html=1;align=center;verticalAlign=middle;whiteSpace=wrap;rounded=0;" vertex="1" parent="1">
          <mxGeometry x="239" y="296" width="60" height="30" as="geometry" />
        </mxCell>
        <mxCell id="flCzr4l9I_kHlXfD0UTF-36" value="Valider" style="text;html=1;align=center;verticalAlign=middle;whiteSpace=wrap;rounded=0;" vertex="1" parent="1">
          <mxGeometry x="300" y="315" width="60" height="30" as="geometry" />
        </mxCell>
        <mxCell id="flCzr4l9I_kHlXfD0UTF-37" value="Echec" style="text;html=1;align=center;verticalAlign=middle;whiteSpace=wrap;rounded=0;" vertex="1" parent="1">
          <mxGeometry x="315.5" y="283" width="60" height="30" as="geometry" />
        </mxCell>
        <mxCell id="flCzr4l9I_kHlXfD0UTF-49" style="edgeStyle=orthogonalEdgeStyle;rounded=0;orthogonalLoop=1;jettySize=auto;html=1;entryX=0.5;entryY=0;entryDx=0;entryDy=0;" edge="1" parent="1" source="flCzr4l9I_kHlXfD0UTF-38" target="flCzr4l9I_kHlXfD0UTF-41">
          <mxGeometry relative="1" as="geometry" />
        </mxCell>
        <mxCell id="flCzr4l9I_kHlXfD0UTF-38" value="" style="ellipse;whiteSpace=wrap;html=1;" vertex="1" parent="1">
          <mxGeometry x="236" y="420" width="150" height="50" as="geometry" />
        </mxCell>
        <mxCell id="flCzr4l9I_kHlXfD0UTF-39" value="Données brutes corrompues ou mal formatées" style="text;html=1;align=center;verticalAlign=middle;whiteSpace=wrap;rounded=0;" vertex="1" parent="1">
          <mxGeometry x="251" y="430" width="130" height="30" as="geometry" />
        </mxCell>
        <mxCell id="flCzr4l9I_kHlXfD0UTF-40" value="" style="rhombus;whiteSpace=wrap;html=1;" vertex="1" parent="1">
          <mxGeometry x="293" y="287" width="35" height="35" as="geometry" />
        </mxCell>
        <mxCell id="flCzr4l9I_kHlXfD0UTF-50" style="edgeStyle=orthogonalEdgeStyle;rounded=0;orthogonalLoop=1;jettySize=auto;html=1;" edge="1" parent="1" source="flCzr4l9I_kHlXfD0UTF-41" target="flCzr4l9I_kHlXfD0UTF-4">
          <mxGeometry relative="1" as="geometry" />
        </mxCell>
        <mxCell id="flCzr4l9I_kHlXfD0UTF-41" value="" style="rhombus;whiteSpace=wrap;html=1;" vertex="1" parent="1">
          <mxGeometry x="293.5" y="521.5" width="35" height="35" as="geometry" />
        </mxCell>
        <mxCell id="flCzr4l9I_kHlXfD0UTF-44" value="" style="strokeWidth=2;html=1;shape=mxgraph.flowchart.start_2;whiteSpace=wrap;fillColor=#000000;" vertex="1" parent="1">
          <mxGeometry x="301" y="574" width="20" height="20" as="geometry" />
        </mxCell>
        <mxCell id="flCzr4l9I_kHlXfD0UTF-45" style="edgeStyle=orthogonalEdgeStyle;rounded=0;orthogonalLoop=1;jettySize=auto;html=1;entryX=0.5;entryY=0;entryDx=0;entryDy=0;entryPerimeter=0;exitX=0.498;exitY=1.017;exitDx=0;exitDy=0;exitPerimeter=0;" edge="1" parent="1" source="flCzr4l9I_kHlXfD0UTF-41" target="flCzr4l9I_kHlXfD0UTF-44">
          <mxGeometry relative="1" as="geometry" />
        </mxCell>
        <mxCell id="flCzr4l9I_kHlXfD0UTF-46" value="Valider" style="text;html=1;align=center;verticalAlign=middle;whiteSpace=wrap;rounded=0;" vertex="1" parent="1">
          <mxGeometry x="318.5" y="514" width="60" height="30" as="geometry" />
        </mxCell>
        <mxCell id="flCzr4l9I_kHlXfD0UTF-47" value="Echec" style="text;html=1;align=center;verticalAlign=middle;whiteSpace=wrap;rounded=0;" vertex="1" parent="1">
          <mxGeometry x="301" y="544" width="60" height="30" as="geometry" />
        </mxCell>
        <mxCell id="flCzr4l9I_kHlXfD0UTF-59" style="edgeStyle=orthogonalEdgeStyle;rounded=0;orthogonalLoop=1;jettySize=auto;html=1;entryX=0.5;entryY=0;entryDx=0;entryDy=0;" edge="1" parent="1" source="flCzr4l9I_kHlXfD0UTF-51" target="flCzr4l9I_kHlXfD0UTF-54">
          <mxGeometry relative="1" as="geometry">
            <Array as="points">
              <mxPoint x="518" y="891" />
              <mxPoint x="518" y="891" />
              <mxPoint x="518" y="927" />
            </Array>
          </mxGeometry>
        </mxCell>
        <mxCell id="flCzr4l9I_kHlXfD0UTF-51" value="" style="ellipse;whiteSpace=wrap;html=1;" vertex="1" parent="1">
          <mxGeometry x="421.25" y="770" width="192.5" height="84.17" as="geometry" />
        </mxCell>
        <mxCell id="flCzr4l9I_kHlXfD0UTF-52" value="Erreur d&#39;indexation des données :&amp;nbsp;&lt;br&gt;problèmes de format, de taille, de cohérence des données" style="text;html=1;align=center;verticalAlign=middle;whiteSpace=wrap;rounded=0;" vertex="1" parent="1">
          <mxGeometry x="452.5" y="800.08" width="130" height="30" as="geometry" />
        </mxCell>
        <mxCell id="flCzr4l9I_kHlXfD0UTF-54" value="" style="rhombus;whiteSpace=wrap;html=1;" vertex="1" parent="1">
          <mxGeometry x="500" y="927.5" width="35" height="35" as="geometry" />
        </mxCell>
        <mxCell id="flCzr4l9I_kHlXfD0UTF-55" value="" style="strokeWidth=2;html=1;shape=mxgraph.flowchart.start_2;whiteSpace=wrap;fillColor=#000000;" vertex="1" parent="1">
          <mxGeometry x="507.5" y="980" width="20" height="20" as="geometry" />
        </mxCell>
        <mxCell id="flCzr4l9I_kHlXfD0UTF-56" style="edgeStyle=orthogonalEdgeStyle;rounded=0;orthogonalLoop=1;jettySize=auto;html=1;entryX=0.5;entryY=0;entryDx=0;entryDy=0;entryPerimeter=0;exitX=0.498;exitY=1.017;exitDx=0;exitDy=0;exitPerimeter=0;" edge="1" parent="1" source="flCzr4l9I_kHlXfD0UTF-54" target="flCzr4l9I_kHlXfD0UTF-55">
          <mxGeometry relative="1" as="geometry" />
        </mxCell>
        <mxCell id="flCzr4l9I_kHlXfD0UTF-57" value="Valider" style="text;html=1;align=center;verticalAlign=middle;whiteSpace=wrap;rounded=0;" vertex="1" parent="1">
          <mxGeometry x="525" y="920" width="60" height="30" as="geometry" />
        </mxCell>
        <mxCell id="flCzr4l9I_kHlXfD0UTF-58" value="Echec" style="text;html=1;align=center;verticalAlign=middle;whiteSpace=wrap;rounded=0;" vertex="1" parent="1">
          <mxGeometry x="507.5" y="950" width="60" height="30" as="geometry" />
        </mxCell>
      </root>
    </mxGraphModel>
  </diagram>
</mxfile>
